<?xml version="1.0" encoding="UTF-8"?>
<svg id="a" data-name="Слой 1" xmlns="http://www.w3.org/2000/svg" viewBox="0 0 512 512">
  <defs>
    <style>
      .b {
        fill: #922f30;
      }
    </style>
  </defs>
  <path class="b" d="M994.83,274.22c.3-2.42.51-4.85.67-7.3h-70.5c.3-2.42.51-4.87.67-7.31h-87.7c.16-2.56.27-5.13.27-7.72,0-2.3-.09-4.59-.22-6.88h43.5s0,.01,0,.02h113.4c-.29-2.45-.66-4.88-1.1-7.3h-68.73c-.29-2.45-.66-4.89-1.1-7.31h-87.7c-.89-4.92-2.08-9.79-3.56-14.6h56.03s0,.01,0,.02h99.01c-.92-2.45-1.92-4.88-2.98-7.3h-66.84c-.92-2.46-1.92-4.89-2.99-7.31h-87.7c-2.19-4.95-4.69-9.81-7.49-14.6h62.43s0,.01,0,.02h90.57c-1.62-2.46-3.34-4.89-5.12-7.3h-64.7c-1.63-2.46-3.34-4.9-5.13-7.31h-87.7c-3.68-4.98-7.7-9.85-12.03-14.6h62.14s.01.01.02.02h88.38c-2.49-2.47-5.08-4.9-7.74-7.3h-62.08c-2.49-2.48-5.09-4.91-7.75-7.31h-87.7c-5.59-5.04-11.56-9.9-17.88-14.6h50.69s.02.01.03.02h96.48c-3.7-2.49-7.5-4.92-11.4-7.3h-58.4c-3.71-2.5-7.52-4.94-11.43-7.31h-87.7c-6.96-4.23-14.24-8.27-21.81-12.11.51.07,1.02.13,1.52.2h141.16c-5.65-2.54-11.45-4.97-17.38-7.3h-52.42c-6.55-2.95-13.29-5.76-20.21-8.41h-87.7c-16.34-6.27-33.68-11.68-51.82-16.15h122.19c-2.52-.43-5.05-.83-7.6-1.22-17.87-3.51-72.26-13.39-118.4-13.39h-240.15c-56.09,0-124.44,14.61-124.44,14.61h120.64c-18.15,4.47-35.48,9.88-51.82,16.15h-87.33c-6.92,2.65-13.66,5.46-20.21,8.41h-51.21c-5.92,2.33-11.73,4.75-17.38,7.3h140.71c-7.43,3.78-14.58,7.75-21.42,11.91h-87.33c-3.91,2.38-7.72,4.82-11.43,7.31h-57.2c-3.9,2.37-7.7,4.81-11.4,7.3h96.48s.02-.01.03-.02h49.12c-6.32,4.69-12.29,9.56-17.88,14.6h-87.33c-2.67,2.4-5.26,4.84-7.75,7.31h-60.87c-2.66,2.4-5.25,4.83-7.74,7.3h88.38s.01-.01.02-.02h60.56c-4.33,4.75-8.35,9.62-12.03,14.6h-87.33c-1.79,2.41-3.5,4.85-5.13,7.31h-63.49c-1.78,2.41-3.49,4.84-5.12,7.3h90.57s0-.01,0-.02h60.85c-2.8,4.78-5.3,9.65-7.49,14.6h-87.33c-1.07,2.42-2.07,4.86-2.99,7.31H39.21c-1.07,2.42-2.07,4.85-2.98,7.3h99.01s0-.01,0-.02h54.46c-1.48,4.81-2.67,9.67-3.56,14.6h-87.33c-.44,2.43-.81,4.86-1.1,7.31H30.18c-.44,2.42-.81,4.85-1.1,7.3h113.4s0-.01,0-.02h41.93c-.13,2.28-.22,4.57-.22,6.88,0,2.59.11,5.16.27,7.72h-87.33c.16,2.45.36,4.89.67,7.31H28.51c.16,2.44.36,4.88.67,7.3h136.15s-.01-.01-.02-.02h20.99c.93,4.92,2.15,9.79,3.67,14.6h-87.33c.78,2.45,1.61,4.89,2.53,7.31H34.01c.77,2.45,1.6,4.88,2.52,7.3h159.02c2.23,4.94,4.76,9.8,7.6,14.58h-87.33c1.46,2.46,3,4.9,4.62,7.31H47.2c1.46,2.46,2.99,4.89,4.61,7.3h161.13c3.73,4.98,7.81,9.84,12.19,14.58h-87.33c2.28,2.47,4.64,4.91,7.09,7.31h-75.71c2.28,2.47,4.63,4.9,7.07,7.3h163.77c5.65,5.03,11.69,9.89,18.07,14.58h-87.33c3.39,2.49,6.88,4.93,10.46,7.31h-79.09c3.38,2.48,6.86,4.92,10.44,7.3h167.51c8.59,5.16,17.66,10.02,27.15,14.58h-87.33c5.28,2.54,10.68,4.98,16.22,7.31h-84.84c5.26,2.53,10.66,4.96,16.18,7.3h174.56c15.48,5.64,31.8,10.53,48.83,14.58h-87.33c10.36,2.47,20.98,4.62,31.83,6.45h-103.96c11.44,2.82,23.19,5.26,35.24,7.3h2.87l.11.22,246.9-.22h240.92c12.03-2.04,23.77-4.48,35.19-7.3h-105.17c10.85-1.83,21.47-3.99,31.83-6.45h-87.7c17.02-4.05,33.35-8.94,48.83-14.58h176.13c5.52-2.33,10.92-4.77,16.18-7.3h-86.05c5.54-2.34,10.94-4.78,16.22-7.31h-87.7c9.49-4.56,18.56-9.42,27.15-14.58h169.09c3.58-2.38,7.06-4.81,10.44-7.3h-80.3c3.59-2.39,7.07-4.82,10.46-7.31h-87.7c6.38-4.69,12.42-9.55,18.07-14.58h165.35c2.44-2.4,4.8-4.83,7.07-7.3h-76.92c2.45-2.4,4.81-4.84,7.09-7.31h-87.7c4.38-4.75,8.46-9.61,12.19-14.58h162.7c1.61-2.41,3.15-4.84,4.61-7.3h-74.45c1.62-2.41,3.16-4.85,4.62-7.31h-87.7c2.84-4.78,5.37-9.64,7.6-14.58h160.6c.92-2.41,1.75-4.85,2.52-7.3h-72.36c.93-2.42,1.76-4.86,2.53-7.31h-87.7c1.52-4.81,2.74-9.67,3.67-14.6h22.56s-.01.01-.02.02h136.15ZM511.21,324.84c-121.52,0-220.03-52.4-220.03-117.04s98.51-117.04,220.03-117.04,220.03,52.4,220.03,117.04-98.51,117.04-220.03,117.04Z"/>
</svg>